<svg xmlns="http://www.w3.org/2000/svg" xml:space="preserve" width="2000" height="122" viewBox="0 0 2000 122" data-version="1" data-id="lg_bxF4LqpXHmtkgQTTdb"><g id="outer-wrapper" data-padding="20" transform="matrix(1,0,0,1,0,0)"><g id="inner-wrapper" transform="matrix(0.964349376114082,0,0,0.964349376114082,10,2.1746880570409957)"><rect width="416.272" height="59.89" x="418.25389094269883" y="-368.945" fill="none" rx="0" ry="0" transform="translate(472.36 371.54)"></rect><path d="M907.8398909426987 49.64999999999998Q905.4598909426987 49.64999999999998 903.4598909426987 48.91999999999996T899.8298909426987 46.849999999999966T896.9798909426987 43.65999999999997Q895.7598909426987 41.799999999999955 894.9198909426987 39.539999999999964Q894.0898909426987 37.26999999999998 893.6798909426986 34.68999999999994Q893.2698909426987 32.099999999999966 893.2698909426987 29.319999999999936T893.6698909426987 23.959999999999923Q894.0598909426986 21.369999999999948 894.8698909426987 19.1099999999999Q895.6798909426986 16.839999999999918 896.8898909426987 14.979999999999905Q898.0898909426986 13.129999999999882 899.7098909426986 11.789999999999907Q901.3198909426986 10.449999999999932 903.3598909426986 9.719999999999914Q905.3998909426987 8.999999999999886 907.8398909426986 8.999999999999886Q910.2298909426986 8.999999999999886 912.2298909426986 9.719999999999914Q914.2298909426986 10.449999999999932 915.8598909426986 11.789999999999907T918.7098909426986 14.979999999999905Q919.9298909426986 16.839999999999918 920.7598909426986 19.1099999999999Q921.5998909426986 21.36999999999989 922.0098909426986 23.959999999999923Q922.4198909426987 26.539999999999907 922.4198909426987 29.319999999999936T922.0198909426987 34.68999999999994Q921.6198909426987 37.269999999999925 920.8098909426988 39.539999999999964Q920.0098909426987 41.799999999999955 918.7998909426988 43.65999999999997Q917.5898909426987 45.50999999999999 915.9798909426987 46.849999999999966Q914.3598909426987 48.18999999999994 912.3198909426987 48.91999999999996T907.8398909426987 49.64999999999998M916.9098909426987 30.139999999999986Q916.9098909426987 28.289999999999964 916.7898909426987 26.349999999999966Q916.6698909426987 24.41999999999996 916.3098909426986 22.579999999999984T915.3198909426986 19.109999999999957Q914.6798909426986 17.47999999999996 913.6598909426987 16.269999999999982T911.1698909426987 14.349999999999966Q909.6998909426986 13.629999999999939 907.6798909426986 13.629999999999939Q905.7798909426986 13.629999999999939 904.3698909426986 14.269999999999925Q902.9698909426986 14.909999999999911 901.9898909426986 16.009999999999934Q901.0098909426986 17.09999999999991 900.3698909426986 18.579999999999927Q899.7298909426986 20.049999999999955 899.3898909426986 21.68999999999994Q899.0398909426985 23.329999999999927 898.9098909426986 25.049999999999955Q898.7798909426986 26.779999999999973 898.7798909426986 28.38999999999993Q898.7798909426986 30.279999999999916 898.8998909426986 32.23999999999995T899.3798909426986 36.039999999999964Q899.7298909426986 37.87999999999994 900.3698909426986 39.50999999999999T902.0398909426985 42.360000000000014T904.5298909426986 44.29000000000002Q905.9898909426986 45.01000000000005 907.9998909426986 45.01000000000005Q909.8798909426987 45.01000000000005 911.2698909426986 44.36000000000007Q912.6698909426987 43.71000000000009 913.6598909426987 42.5800000000001Q914.6498909426987 41.46000000000009 915.2898909426985 39.99000000000012T916.2798909426986 36.86000000000013Q916.6398909426987 35.2000000000001 916.7698909426986 33.48000000000013Q916.9098909426987 31.760000000000105 916.9098909426987 30.140000000000157M954.4798909426986 49.19000000000017H950.1098909426986L936.9898909426986 24.060000000000173L932.7798909426986 13.120000000000175L932.6198909426986 13.150000000000148L934.3398909426986 24.810000000000173V49.19000000000017H929.5698909426986V15L928.7798909426986 9.439999999999998L934.0998909426986 8.910000000000025L947.2498909426986 34.43000000000001L951.6498909426986 45.48000000000002L951.8098909426985 45.450000000000045L949.7098909426986 33.82000000000005V9.440000000000055L954.4798909426986 8.910000000000082ZM969.7198909426986 44.96000000000015H989.5998909426986L989.0698909426986 49.20000000000016H964.6898909426988L965.0798909426987 43.90000000000015V15.010000000000161L964.2898909426988 9.45000000000016H988.6698909426987V13.690000000000168H969.4598909426987L969.9898909426987 18.72000000000014V25.740000000000123H986.8098909426988V29.590000000000146H969.9898909426988V40.19000000000017ZM1022.3198909426986 43.100000000000136L1024.3598909426987 46.44000000000011Q1023.2798909426987 47.310000000000116 1022.1598909426987 47.92000000000013Q1021.0498909426987 48.53000000000014 1019.8298909426987 48.92000000000013Q1018.6098909426987 49.300000000000125 1017.2598909426987 49.47000000000014Q1015.9098909426987 49.65000000000015 1014.3498909426987 49.65000000000015Q1011.7998909426987 49.65000000000015 1009.4998909426986 48.89000000000016Q1007.1898909426986 48.14000000000016 1005.2198909426986 46.77000000000015Q1003.2398909426986 45.41000000000014 1001.6498909426987 43.50000000000017T998.9498909426986 39.27000000000015T997.2298909426986 34.300000000000125T996.6198909426987 28.790000000000134Q996.6198909426987 24.790000000000134 997.7598909426986 21.20000000000016T1001.1498909426987 14.890000000000157Q1003.3998909426987 12.180000000000177 1006.7298909426986 10.590000000000146Q1010.0498909426985 9.00000000000017 1014.4298909426986 9.00000000000017Q1017.4698909426986 9.00000000000017 1019.9198909426987 9.96000000000015Q1022.3798909426986 10.930000000000177 1024.2798909426986 12.760000000000161L1021.8998909426987 15.590000000000146Q1021.2598909426986 15.17000000000013 1020.5498909426985 14.790000000000134Q1019.8298909426985 14.400000000000148 1018.9698909426986 14.110000000000127T1017.0898909426986 13.650000000000148Q1016.0698909426986 13.470000000000141 1014.8498909426986 13.470000000000141Q1011.6198909426986 13.470000000000141 1009.2198909426986 14.690000000000168T1005.2298909426986 17.99000000000018T1002.8598909426986 22.840000000000202T1002.0798909426986 28.710000000000207Q1002.0798909426986 30.650000000000205 1002.4698909426986 32.610000000000184Q1002.8698909426986 34.570000000000164 1003.6298909426987 36.400000000000205Q1004.3798909426987 38.23000000000019 1005.4998909426986 39.82000000000022Q1006.6098909426987 41.410000000000196 1008.0498909426987 42.60000000000019Q1009.4998909426986 43.79000000000019 1011.2498909426986 44.4700000000002Q1012.9898909426986 45.140000000000214 1015.0398909426987 45.140000000000214Q1016.2298909426986 45.140000000000214 1017.1298909426987 45.04000000000019Q1018.0298909426986 44.93000000000018 1018.8398909426986 44.69000000000017T1020.4698909426986 44.070000000000164Q1021.2898909426985 43.68000000000018 1022.3198909426986 43.100000000000136M1038.8298909426985 40.18000000000012L1038.5698909426987 44.9500000000001H1057.9098909426987L1057.3798909426987 49.19000000000011H1033.3998909426987L1033.9298909426986 43.8900000000001V15L1033.1298909426987 9.439999999999998L1038.8298909426985 8.910000000000025ZM1067.6298909426987 13.690000000000111L1068.1598909426987 9.450000000000102H1092.0098909426986V13.690000000000111H1082.5198909426986V44.96000000000009H1092.5398909426985L1092.0098909426986 49.2000000000001H1068.1598909426987V44.96000000000009H1077.5898909426987V13.690000000000111ZM1125.6698909426987 43.100000000000136L1127.7098909426986 46.44000000000011Q1126.6298909426987 47.310000000000116 1125.5098909426988 47.92000000000013Q1124.3998909426987 48.53000000000014 1123.1798909426986 48.92000000000013Q1121.9598909426986 49.300000000000125 1120.6098909426987 49.47000000000014Q1119.2598909426988 49.65000000000015 1117.6998909426986 49.65000000000015Q1115.1498909426987 49.65000000000015 1112.8498909426987 48.89000000000016Q1110.5398909426985 48.14000000000016 1108.5698909426987 46.77000000000015Q1106.5898909426987 45.41000000000014 1104.9998909426986 43.50000000000017T1102.2998909426988 39.27000000000015T1100.5798909426987 34.300000000000125T1099.9698909426986 28.790000000000134Q1099.9698909426986 24.790000000000134 1101.1098909426987 21.20000000000016T1104.4998909426986 14.890000000000157Q1106.7498909426986 12.180000000000177 1110.0798909426985 10.590000000000146Q1113.3998909426987 9.00000000000017 1117.7798909426986 9.00000000000017Q1120.8198909426987 9.00000000000017 1123.2698909426986 9.96000000000015Q1125.7298909426986 10.930000000000177 1127.6298909426987 12.760000000000161L1125.2498909426986 15.590000000000146Q1124.6098909426987 15.17000000000013 1123.8998909426987 14.790000000000134Q1123.1798909426986 14.400000000000148 1122.3198909426987 14.110000000000127T1120.4398909426986 13.650000000000148Q1119.4198909426987 13.470000000000141 1118.1998909426986 13.470000000000141Q1114.9698909426986 13.470000000000141 1112.5698909426987 14.690000000000168T1108.5798909426985 17.99000000000018T1106.2098909426986 22.840000000000202T1105.4298909426986 28.710000000000207Q1105.4298909426986 30.650000000000205 1105.8198909426987 32.610000000000184Q1106.2198909426986 34.570000000000164 1106.9798909426986 36.400000000000205Q1107.7298909426986 38.23000000000019 1108.8498909426987 39.82000000000022Q1109.9598909426986 41.410000000000196 1111.3998909426987 42.60000000000019Q1112.8498909426987 43.79000000000019 1114.5998909426987 44.4700000000002Q1116.3398909426987 45.140000000000214 1118.3898909426987 45.140000000000214Q1119.5798909426987 45.140000000000214 1120.4798909426986 45.04000000000019Q1121.3798909426987 44.93000000000018 1122.1898909426986 44.69000000000017T1123.8198909426987 44.070000000000164Q1124.6398909426987 43.68000000000018 1125.6698909426987 43.100000000000136M1142.2598909426986 49.19000000000011H1137.1998909426986V15L1136.4098909426987 9.439999999999998L1142.2598909426986 8.910000000000025V26.5L1156.7298909426986 9.439999999999998H1162.6098909426987L1148.5398909426985 26.25999999999999L1144.0598909426985 27.930000000000007L1148.6698909426987 29.470000000000027L1163.3298909426985 49.190000000000055H1157.0498909426985L1142.2598909426986 29.420000000000073ZM1196.7698909426986 49.19000000000011H1191.9998909426986V25.310000000000116L1193.5698909426987 12.110000000000127L1193.4298909426986 12.090000000000146L1189.3498909426987 24.780000000000143L1184.7698909426986 35.94000000000017H1182.1198909426987L1177.4498909426986 24.810000000000173L1173.1098909426987 12.090000000000146L1172.9498909426986 12.110000000000127L1174.9098909426987 25.310000000000116V49.19000000000011H1170.1398909426987V15L1169.3998909426987 9.439999999999998L1175.0698909426987 8.910000000000025L1181.5898909426987 24.010000000000048L1183.4698909426986 30.640000000000043L1185.2998909426988 24.010000000000048L1191.2898909426988 9.440000000000055L1196.7698909426988 8.910000000000082ZM1206.3898909426987 49.19000000000011H1201.5198909426986L1214.0198909426986 14.740000000000123L1214.9498909426986 9.440000000000111L1219.6698909426987 8.910000000000139L1234.1898909426986 49.19000000000017H1228.8898909426987L1224.9698909426986 37.26000000000016H1210.7898909426988ZM1218.9498909426986 20.570000000000107L1217.7598909426986 12.090000000000089L1216.5698909426985 20.570000000000107L1212.0898909426985 33.290000000000134H1223.6698909426984ZM1247.8898909426987 32.93000000000012H1245.5098909426986V49.2000000000001H1240.6598909426987V15.010000000000105L1239.7298909426986 9.710000000000093Q1241.4998909426986 9.500000000000114 1243.6398909426987 9.310000000000116Q1245.7698909426986 9.13000000000011 1248.0798909426987 9.13000000000011Q1251.4198909426987 9.13000000000011 1254.2498909426986 9.830000000000098Q1257.0898909426987 10.530000000000086 1259.1498909426987 11.910000000000082Q1261.2198909426986 13.290000000000077 1262.3898909426987 15.340000000000089Q1263.5498909426985 17.40000000000009 1263.5498909426985 20.070000000000107Q1263.5498909426985 22.860000000000127 1262.5998909426985 24.980000000000132Q1261.6398909426985 27.100000000000136 1259.9998909426986 28.590000000000146Q1258.3598909426985 30.090000000000146 1256.1098909426985 31.030000000000143Q1253.8498909426985 31.97000000000014 1251.2798909426986 32.42000000000013L1255.0498909426985 33.48000000000013L1265.7298909426984 49.20000000000016H1259.8198909426985L1249.1398909426985 33.43000000000018Q1248.8398909426985 33.06000000000017 1248.4698909426986 32.99000000000018Q1248.0998909426985 32.93000000000018 1247.8898909426985 32.93000000000018M1244.9798909426986 13.050000000000182L1245.5098909426986 18.800000000000182V28.920000000000186H1248.6298909426985Q1251.0398909426985 28.920000000000186 1252.8998909426984 28.25000000000017Q1254.7498909426986 27.570000000000164 1256.0298909426986 26.420000000000186Q1257.2998909426985 25.27000000000021 1257.9598909426984 23.74000000000018Q1258.6198909426985 22.220000000000198 1258.6198909426985 20.50000000000017Q1258.6198909426985 18.99000000000018 1258.1998909426984 17.820000000000164T1257.0298909426986 15.810000000000173Q1256.2898909426985 14.96000000000015 1255.3098909426985 14.360000000000184Q1254.3298909426985 13.77000000000021 1253.2298909426984 13.420000000000186Q1252.1298909426985 13.080000000000211 1250.9798909426984 12.920000000000186T1248.7398909426984 12.760000000000161Q1247.6298909426985 12.760000000000161 1246.7398909426984 12.830000000000155Q1245.8498909426985 12.890000000000157 1244.9798909426984 13.050000000000182M1289.2998909426985 49.20000000000016H1284.2698909426986V13.690000000000168H1272.9998909426986V9.45000000000016H1300.4298909426984V13.690000000000168H1289.2998909426985Z "></path><path stroke="#000" stroke-width="2.7" d="M858.7198909426987 -0.24200000000001864V122.24199999999996 "></path><path d="M761.8378909426988 94.644H826.9938909426987M829.6158909426987 94.92700000000002C831.0168909426988 94.92700000000002 832.2488909426987 93.79700000000003 832.2488909426987 92.39600000000002V64.26999999999998C833.2988909426988 64.51799999999997 833.6948909426987 64.654 834.4518909426987 64.654C838.8588909426987 64.654 842.1588909426987 60.10000000000002 842.3848909426987 57.127999999999986L842.4978909426987 55.71600000000001H842.3958909426988S842.4068909426987 55.45600000000002 842.3728909426987 55.309000000000026A1.13 1.13 0 0 0 842.0118909426988 54.81200000000001L831.0168909426988 18.764999999999986A1.24 1.24 0 0 0 829.8068909426987 17.88299999999998H759.0128909426987C758.4598909426987 17.88299999999998 757.9628909426987 18.255999999999972 757.8038909426987 18.786999999999978L746.9678909426987 54.70999999999998Q746.5718909426987 54.947 746.4248909426988 55.38799999999998C746.3908909426987 55.500999999999976 746.4138909426987 55.70399999999995 746.4138909426987 55.70399999999995H746.3118909426987L746.4248909426988 57.11699999999996C746.6508909426987 60.08899999999994 749.9508909426987 64.61999999999995 754.3688909426987 64.61999999999995C755.1258909426987 64.61999999999995 755.5328909426987 64.50699999999995 756.5838909426988 64.26999999999992V92.40699999999993A2.6 2.6 0 0 0 759.2058909426987 94.92699999999991M815.6828909426987 55.703999999999894L810.9368909426987 19.973999999999876H818.5188909426987L826.4288909426987 55.703999999999894ZM789.0598909426988 55.703999999999894L790.6298909426987 19.973999999999876H797.9198909426987L799.4098909426987 55.703999999999894ZM762.4708909426987 55.703999999999894L770.2908909426988 19.973999999999876H777.9178909426987L773.0818909426987 55.703999999999894ZM761.8378909426987 87.23099999999988V61.286999999999864A7.12 7.12 0 0 0 767.8278909426987 64.65399999999988C770.7428909426988 64.65399999999988 773.0708909426987 62.687999999999874 774.4378909426987 60.50699999999989C775.8168909426987 62.6869999999999 778.1778909426987 64.65399999999988 781.0818909426987 64.65399999999988C783.9978909426987 64.65399999999988 786.3818909426988 62.687999999999874 787.7488909426987 60.50699999999989C789.1168909426988 62.6869999999999 791.5118909426988 64.65399999999988 794.4158909426988 64.65399999999988S799.7268909426988 62.687999999999874 801.1058909426987 60.50699999999989C802.4618909426987 62.6869999999999 804.8688909426987 64.65399999999988 807.7728909426987 64.65399999999988S813.0828909426988 62.687999999999874 814.4628909426988 60.50699999999989C815.8298909426987 62.6869999999999 818.0788909426988 64.65399999999988 820.9928909426988 64.65399999999988A7.12 7.12 0 0 0 826.9828909426988 61.286999999999864V87.23099999999988Z "></path><path d="M818.3838909426987 85.67200000000003A6.639 6.639 0 1 1 805.1058909426987 85.67200000000003V76.91400000000004A6.639 6.639 0 1 1 818.3838909426987 76.91400000000004ZM801.4218909426987 85.67200000000003A6.639 6.639 0 1 1 788.1448909426988 85.67200000000003V76.91400000000004A6.639 6.639 0 1 1 801.4218909426987 76.91400000000004ZM784.4718909426988 85.67200000000003A6.639 6.639 0 1 1 771.1948909426987 85.67200000000003V76.91400000000004A6.639 6.639 0 1 1 784.4718909426988 76.91400000000004Z "></path><rect width="387.688" height="28.25" x="432.54589094269875" y="-353.125" fill="none" rx="0" ry="0" transform="translate(458.07 422.09)"></rect><path d="M892.3798909426987 72.60000000000002L897.0998909426987 81.55000000000001L901.8498909426987 72.60000000000002H904.0798909426987L898.1398909426988 83.53000000000003V90.45000000000005H896.0598909426988V83.63000000000005L890.1098909426988 72.60000000000008ZM917.7698909426988 83.73000000000002Q917.7698909426988 85.37 917.3398909426987 86.67000000000002Q916.9098909426987 87.96000000000004 916.1098909426987 88.85000000000002Q915.2998909426988 89.74000000000001 914.1598909426987 90.21000000000004T911.5798909426987 90.68000000000006Q910.2298909426987 90.68000000000006 909.1198909426987 90.21000000000004Q907.9998909426988 89.74000000000001 907.1898909426988 88.85000000000002T905.9298909426988 86.67000000000002Q905.4898909426988 85.37 905.4898909426988 83.73000000000002Q905.4898909426988 81.53000000000003 906.2298909426988 79.98000000000002Q906.9798909426988 78.44 908.3598909426987 77.63Q909.7498909426988 76.82 911.6598909426988 76.82Q913.4898909426988 76.82 914.8698909426987 77.63Q916.2398909426988 78.44999999999999 916.9998909426988 80Q917.7698909426988 81.54000000000002 917.7698909426988 83.73000000000002M907.5898909426987 83.73000000000002Q907.5898909426987 85.34000000000003 908.0098909426988 86.52000000000004Q908.4398909426988 87.71000000000004 909.3298909426987 88.35000000000002Q910.2198909426987 89 911.6298909426987 89Q913.0198909426988 89 913.9198909426988 88.35000000000002Q914.8098909426988 87.71000000000004 915.2398909426988 86.52000000000004Q915.6698909426988 85.34000000000003 915.6698909426988 83.73000000000002Q915.6698909426988 82.13 915.2398909426988 80.96000000000004Q914.8098909426988 79.80000000000001 913.9198909426988 79.16000000000003Q913.0298909426988 78.53000000000003 911.6098909426987 78.53000000000003Q909.5298909426988 78.53000000000003 908.5598909426988 79.91000000000003Q907.5898909426987 81.28000000000003 907.5898909426987 83.73000000000002M930.2798909426988 77.06H932.3198909426987V90.44H930.6598909426987L930.3598909426987 88.56H930.2498909426987Q929.8398909426987 89.25999999999999 929.1798909426986 89.73000000000002Q928.5198909426987 90.21000000000004 927.6998909426986 90.45000000000005Q926.8698909426987 90.68000000000006 925.9498909426986 90.68000000000006Q924.3598909426987 90.68000000000006 923.2798909426987 90.17000000000007Q922.2098909426986 89.66000000000008 921.6698909426987 88.5800000000001Q921.1198909426987 87.5100000000001 921.1198909426987 85.8300000000001V77.06000000000012H923.1698909426987V85.68000000000012Q923.1698909426987 87.35000000000014 923.9298909426986 88.18000000000012Q924.6898909426986 89.00000000000011 926.2398909426986 89.00000000000011Q927.7298909426986 89.00000000000011 928.6098909426987 88.44000000000011Q929.4998909426986 87.88000000000011 929.8898909426987 86.78000000000009Q930.2798909426986 85.69000000000011 930.2798909426986 84.10000000000008ZM942.6798909426986 76.82Q943.0798909426987 76.82 943.5198909426987 76.86000000000001T944.2998909426987 76.98000000000002L944.0498909426987 78.86000000000001Q943.7198909426986 78.77000000000004 943.3198909426986 78.72000000000003Q942.9098909426987 78.67000000000002 942.5598909426986 78.67000000000002Q941.7498909426986 78.67000000000002 941.0398909426987 79Q940.3298909426987 79.32 939.7898909426987 79.92000000000002Q939.2498909426986 80.53000000000003 938.9498909426986 81.38Q938.6398909426987 82.21999999999997 938.6398909426987 83.25999999999999V90.44H936.5998909426987V77.06H938.2898909426987L938.5098909426987 79.53000000000003H938.5898909426987Q939.0098909426987 78.78000000000003 939.5898909426987 78.17000000000002Q940.1798909426986 77.55000000000001 940.9498909426986 77.18Q941.7298909426986 76.82 942.6798909426986 76.82M963.6798909426986 85.69Q963.6798909426986 87.27999999999997 962.8898909426987 88.39999999999998Q962.0998909426987 89.50999999999999 960.6898909426986 90.09999999999997Q959.2698909426987 90.67999999999995 957.3598909426987 90.67999999999995Q956.3398909426987 90.67999999999995 955.4398909426986 90.58999999999997Q954.5398909426988 90.48999999999995 953.7798909426987 90.31Q953.0198909426987 90.12 952.4498909426986 89.85000000000002V87.86000000000001Q953.3598909426987 88.24000000000001 954.6798909426986 88.57Q955.9998909426987 88.88999999999999 957.4398909426986 88.88999999999999Q958.7798909426987 88.88999999999999 959.7098909426986 88.52999999999997T961.1198909426987 87.48999999999995T961.5998909426987 85.85999999999996Q961.5998909426987 84.94999999999993 961.1998909426987 84.32999999999998T959.8598909426987 83.20999999999998Q958.9298909426988 82.69999999999999 957.3198909426987 82.13Q956.1798909426988 81.71999999999997 955.3198909426987 81.24000000000001Q954.4498909426987 80.75999999999999 953.8698909426987 80.15000000000003Q953.2798909426988 79.54000000000002 952.9798909426988 78.73000000000002Q952.6798909426988 77.93 952.6798909426988 76.89000000000004Q952.6798909426988 75.46000000000004 953.4098909426988 74.44000000000005Q954.1298909426988 73.42000000000007 955.4198909426988 72.88000000000005T958.3798909426987 72.34000000000003Q959.8098909426988 72.34000000000003 961.0198909426988 72.61000000000001Q962.2398909426988 72.87 963.2498909426988 73.33000000000004L962.6098909426987 75.11000000000001Q961.6398909426987 74.71000000000004 960.5598909426988 74.44T958.3298909426987 74.17000000000002Q957.1898909426988 74.17000000000002 956.3998909426987 74.5Q955.6098909426987 74.83999999999997 955.1998909426987 75.44999999999999Q954.7798909426988 76.06 954.7798909426988 76.89999999999998Q954.7798909426988 77.83999999999997 955.1798909426986 78.45999999999998Q955.5698909426987 79.08999999999997 956.4498909426986 79.57Q957.3198909426987 80.05000000000001 958.7598909426987 80.57999999999998Q960.3298909426987 81.14999999999998 961.4298909426986 81.78999999999996T963.1098909426987 83.34999999999997Q963.6798909426986 84.27999999999997 963.6798909426986 85.68999999999994M967.0198909426987 71.45999999999992H969.0498909426987V77.12999999999994Q969.0498909426987 77.61999999999995 969.0198909426987 78.10999999999996Q968.9998909426987 78.60999999999996 968.9398909426986 79.01999999999998H969.0698909426987Q969.4898909426987 78.32 970.1298909426987 77.82999999999998Q970.7698909426987 77.34999999999997 971.5898909426987 77.09999999999997T973.3198909426987 76.84999999999997Q974.9298909426986 76.84999999999997 976.0098909426987 77.35999999999996Q977.0898909426987 77.87999999999994 977.6398909426987 78.94999999999993Q978.1798909426986 80.02999999999992 978.1798909426986 81.7299999999999V90.44999999999993H976.1798909426986V81.86999999999995Q976.1798909426986 80.19999999999993 975.4098909426987 79.36999999999995Q974.6498909426987 78.53999999999996 973.0798909426987 78.53999999999996Q971.5898909426987 78.53999999999996 970.6998909426987 79.09999999999997Q969.8198909426987 79.66999999999996 969.4298909426988 80.76999999999998Q969.0498909426988 81.87 969.0498909426988 83.45999999999998V90.44999999999999H967.0198909426988ZM993.8898909426987 83.7299999999999Q993.8898909426987 85.36999999999989 993.4598909426986 86.6699999999999Q993.0398909426987 87.95999999999992 992.2298909426986 88.84999999999991T990.2798909426987 90.20999999999992T987.6998909426986 90.67999999999995Q986.3598909426987 90.67999999999995 985.2398909426987 90.20999999999992T983.3098909426988 88.84999999999991T982.0598909426988 86.6699999999999Q981.6098909426987 85.36999999999989 981.6098909426987 83.7299999999999Q981.6098909426987 81.52999999999992 982.3498909426987 79.9799999999999Q983.0998909426987 78.43999999999988 984.4798909426987 77.62999999999988Q985.8698909426987 76.81999999999988 987.7898909426988 76.81999999999988Q989.6198909426987 76.81999999999988 990.9898909426987 77.62999999999988Q992.3598909426987 78.44999999999987 993.1298909426987 79.99999999999989Q993.8898909426987 81.5399999999999 993.8898909426987 83.7299999999999M983.7098909426986 83.7299999999999Q983.7098909426986 85.33999999999992 984.1398909426987 86.51999999999992Q984.5598909426988 87.70999999999992 985.4498909426986 88.34999999999991Q986.3498909426987 88.99999999999989 987.7498909426987 88.99999999999989Q989.1398909426987 88.99999999999989 990.0398909426988 88.34999999999991Q990.9398909426986 87.70999999999992 991.3598909426987 86.51999999999992Q991.7898909426988 85.33999999999992 991.7898909426988 83.7299999999999Q991.7898909426988 82.12999999999988 991.3598909426987 80.95999999999992Q990.9398909426986 79.7999999999999 990.0398909426988 79.15999999999991Q989.1498909426987 78.52999999999992 987.7398909426987 78.52999999999992Q985.6498909426987 78.52999999999992 984.6798909426986 79.90999999999991Q983.7098909426986 81.27999999999992 983.7098909426986 83.7299999999999M1003.6798909426986 76.81999999999988Q1006.1798909426986 76.81999999999988 1007.6698909426987 78.5399999999999T1009.1598909426987 83.70999999999992Q1009.1598909426987 85.99999999999994 1008.4798909426987 87.5499999999999Q1007.7898909426988 89.09999999999991 1006.5498909426988 89.88999999999987Q1005.3198909426987 90.6799999999999 1003.6298909426987 90.6799999999999Q1002.5698909426987 90.6799999999999 1001.7598909426987 90.39999999999992Q1000.9598909426986 90.11999999999995 1000.3798909426987 89.64999999999992Q999.8098909426988 89.1699999999999 999.4298909426986 88.6099999999999H999.2898909426988Q999.3198909426987 89.07999999999993 999.3798909426987 89.75999999999988Q999.4298909426986 90.4299999999999 999.4298909426986 90.9299999999999V96.4199999999999H997.3898909426987V77.05999999999989H999.0698909426987L999.3298909426987 79.0399999999999H999.4298909426988Q999.8198909426987 78.4299999999999 1000.3798909426987 77.9199999999999Q1000.9498909426987 77.40999999999991 1001.7598909426988 77.11999999999989Q1002.5698909426987 76.81999999999988 1003.6798909426988 76.81999999999988M1003.3298909426987 78.52999999999986Q1001.9298909426988 78.52999999999986 1001.0898909426987 79.05999999999983Q1000.2398909426987 79.59999999999985 999.8498909426987 80.66999999999985T999.4298909426986 83.34999999999985V83.73999999999984Q999.4298909426986 85.43999999999983 999.7998909426988 86.60999999999984Q1000.1798909426986 87.77999999999986 1001.0398909426988 88.38999999999982T1003.3498909426987 88.99999999999983Q1004.5998909426987 88.99999999999983 1005.4298909426986 88.32999999999981T1006.6598909426987 86.44999999999982Q1007.0698909426987 85.24999999999983 1007.0698909426987 83.68999999999983Q1007.0698909426987 81.31999999999982 1006.1498909426987 79.91999999999985Q1005.2298909426987 78.52999999999986 1003.3298909426987 78.52999999999986M1018.9698909426987 76.81999999999988Q1021.4698909426987 76.81999999999988 1022.9598909426987 78.5399999999999T1024.4498909426989 83.70999999999992Q1024.4498909426989 85.99999999999994 1023.7598909426988 87.5499999999999Q1023.0798909426987 89.09999999999991 1021.8398909426987 89.88999999999987T1018.9198909426987 90.6799999999999Q1017.8498909426987 90.6799999999999 1017.0498909426988 90.39999999999992Q1016.2398909426987 90.11999999999995 1015.6698909426987 89.64999999999992Q1015.0998909426987 89.1699999999999 1014.7198909426987 88.6099999999999H1014.5698909426987Q1014.6098909426987 89.07999999999993 1014.6598909426987 89.75999999999988Q1014.7198909426987 90.4299999999999 1014.7198909426987 90.9299999999999V96.4199999999999H1012.6798909426986V77.05999999999989H1014.3498909426987L1014.6198909426987 79.0399999999999H1014.7198909426987Q1015.1098909426987 78.4299999999999 1015.6698909426987 77.9199999999999T1017.0398909426988 77.11999999999989Q1017.8498909426987 76.81999999999988 1018.9698909426987 76.81999999999988M1018.6098909426987 78.52999999999986Q1017.2198909426987 78.52999999999986 1016.3698909426987 79.05999999999983Q1015.5198909426987 79.59999999999985 1015.1298909426987 80.66999999999985T1014.7198909426986 83.34999999999985V83.73999999999984Q1014.7198909426986 85.43999999999983 1015.0898909426987 86.60999999999984T1016.3198909426987 88.38999999999982T1018.6398909426987 88.99999999999983Q1019.8798909426987 88.99999999999983 1020.7098909426986 88.32999999999981T1021.9498909426986 86.44999999999982Q1022.3598909426987 85.24999999999983 1022.3598909426987 83.68999999999983Q1022.3598909426987 81.31999999999982 1021.4398909426986 79.91999999999985Q1020.5198909426987 78.52999999999986 1018.6098909426987 78.52999999999986M1027.9798909426986 77.05999999999983H1030.0098909426988V90.43999999999983H1027.9798909426986ZM1029.0198909426988 72.05999999999983Q1029.5198909426988 72.05999999999983 1029.8798909426987 72.37999999999982T1030.2398909426988 73.38999999999982Q1030.2398909426988 74.05999999999983 1029.8798909426987 74.38999999999982T1029.0198909426988 74.7199999999998Q1028.4998909426988 74.7199999999998 1028.1498909426987 74.38999999999982T1027.7998909426988 73.38999999999982Q1027.7998909426988 72.69999999999982 1028.1498909426987 72.37999999999982T1029.0198909426988 72.05999999999983M1040.6198909426987 76.81999999999982Q1042.9998909426988 76.81999999999982 1044.2198909426988 77.97999999999985Q1045.4398909426989 79.14999999999986 1045.4398909426989 81.71999999999986V90.43999999999988H1043.4398909426989V81.8599999999999Q1043.4398909426989 80.18999999999988 1042.6798909426989 79.3599999999999Q1041.909890942699 78.52999999999992 1040.3398909426987 78.52999999999992Q1038.119890942699 78.52999999999992 1037.2098909426988 79.77999999999992Q1036.309890942699 81.0399999999999 1036.309890942699 83.4299999999999V90.43999999999988H1034.289890942699V77.05999999999989H1035.9198909426989L1036.2298909426988 78.9899999999999H1036.339890942699Q1036.7598909426988 78.27999999999992 1037.4198909426989 77.7999999999999T1038.899890942699 77.06999999999988T1040.619890942699 76.81999999999988M1053.349890942699 96.44999999999987Q1050.7198909426988 96.44999999999987 1049.289890942699 95.45999999999987Q1047.859890942699 94.47999999999985 1047.859890942699 92.70999999999987Q1047.859890942699 91.44999999999987 1048.659890942699 90.55999999999989T1050.869890942699 89.37999999999988Q1050.349890942699 89.12999999999988 1049.979890942699 88.64999999999986Q1049.599890942699 88.15999999999985 1049.599890942699 87.51999999999987Q1049.599890942699 86.78999999999985 1050.009890942699 86.22999999999985Q1050.419890942699 85.67999999999984 1051.259890942699 85.16999999999985Q1050.2198909426988 84.73999999999984 1049.559890942699 83.71999999999986Q1048.909890942699 82.69999999999987 1048.909890942699 81.34999999999985Q1048.909890942699 79.90999999999985 1049.509890942699 78.88999999999987T1051.239890942699 77.32999999999987Q1052.3798909426991 76.78999999999985 1053.989890942699 76.78999999999985Q1054.3398909426992 76.78999999999985 1054.699890942699 76.81999999999982T1055.389890942699 76.9099999999998Q1055.719890942699 76.95999999999981 1055.959890942699 77.0399999999998H1060.549890942699V78.3399999999998L1058.089890942699 78.6499999999998Q1058.449890942699 79.11999999999983 1058.699890942699 79.79999999999978Q1058.939890942699 80.4699999999998 1058.939890942699 81.2799999999998Q1058.939890942699 83.2899999999998 1057.589890942699 84.45999999999981Q1056.229890942699 85.63999999999982 1053.869890942699 85.63999999999982Q1053.299890942699 85.63999999999982 1052.719890942699 85.5399999999998Q1052.119890942699 85.86999999999978 1051.809890942699 86.2799999999998Q1051.499890942699 86.67999999999978 1051.499890942699 87.20999999999981Q1051.499890942699 87.5999999999998 1051.729890942699 87.82999999999981Q1051.969890942699 88.05999999999983 1052.419890942699 88.1599999999998Q1052.879890942699 88.26999999999981 1053.509890942699 88.26999999999981H1055.869890942699Q1058.049890942699 88.26999999999981 1059.219890942699 89.17999999999984Q1060.3798909426991 90.09999999999985 1060.3798909426991 91.85999999999984Q1060.3798909426991 94.07999999999987 1058.579890942699 95.25999999999982Q1056.769890942699 96.44999999999982 1053.349890942699 96.44999999999982M1053.409890942699 94.85999999999984Q1055.069890942699 94.85999999999984 1056.169890942699 94.51999999999987Q1057.259890942699 94.18999999999988 1057.799890942699 93.55999999999989Q1058.349890942699 92.9299999999999 1058.349890942699 92.05999999999989Q1058.349890942699 91.25999999999988 1057.979890942699 90.84999999999991T1056.8998909426991 90.2999999999999Q1056.199890942699 90.15999999999991 1055.169890942699 90.15999999999991H1052.849890942699Q1051.949890942699 90.15999999999991 1051.279890942699 90.43999999999988T1050.249890942699 91.26999999999987T1049.889890942699 92.63999999999987Q1049.889890942699 93.71999999999986 1050.799890942699 94.28999999999985Q1051.719890942699 94.85999999999984 1053.4098909426991 94.85999999999984M1053.939890942699 84.16999999999985Q1055.389890942699 84.16999999999985 1056.119890942699 83.42999999999984Q1056.8598909426992 82.69999999999982 1056.8598909426992 81.29999999999984Q1056.8598909426992 79.79999999999984 1056.1098909426992 79.03999999999985Q1055.369890942699 78.28999999999985 1053.9098909426991 78.28999999999985Q1052.519890942699 78.28999999999985 1051.769890942699 79.06999999999982Q1051.019890942699 79.8399999999998 1051.019890942699 81.32999999999981Q1051.019890942699 82.69999999999982 1051.779890942699 83.42999999999984Q1052.529890942699 84.16999999999985 1053.939890942699 84.16999999999985M1063.3498909426992 87.52999999999986H1065.519890942699L1065.679890942699 87.81999999999988Q1065.459890942699 88.70999999999987 1065.1198909426992 89.71999999999986Q1064.7898909426992 90.72999999999985 1064.3898909426991 91.74999999999983T1063.5898909426992 93.65999999999985H1062.0798909426992Q1062.3298909426992 92.68999999999983 1062.5798909426992 91.60999999999984Q1062.8198909426992 90.52999999999986 1063.019890942699 89.46999999999986Q1063.229890942699 88.40999999999985 1063.3498909426992 87.52999999999986M1073.8898909426991 95.13999999999987Q1073.2798909426992 95.13999999999987 1072.8198909426992 95.0499999999999Q1072.3598909426992 94.96999999999991 1072.0298909426992 94.81999999999988V93.0499999999999Q1072.419890942699 93.1699999999999 1072.8698909426992 93.2399999999999T1073.8498909426992 93.30999999999989Q1074.5298909426992 93.30999999999989 1075.0998909426992 93.0399999999999Q1075.679890942699 92.76999999999992 1076.019890942699 92.11999999999989Q1076.3598909426992 91.4799999999999 1076.3598909426992 90.33999999999992V72.58999999999992H1078.449890942699V90.1799999999999Q1078.449890942699 91.8599999999999 1077.8898909426991 92.94999999999987Q1077.3398909426992 94.0499999999999 1076.3198909426992 94.59999999999985Q1075.2998909426992 95.13999999999987 1073.8898909426991 95.13999999999987M1091.8898909426991 77.05999999999989H1093.929890942699V90.43999999999988H1092.269890942699L1091.969890942699 88.55999999999989H1091.8598909426992Q1091.449890942699 89.25999999999988 1090.789890942699 89.7299999999999Q1090.1298909426991 90.20999999999992 1089.309890942699 90.44999999999993Q1088.479890942699 90.67999999999995 1087.549890942699 90.67999999999995Q1085.969890942699 90.67999999999995 1084.889890942699 90.16999999999996Q1083.819890942699 89.65999999999997 1083.279890942699 88.57999999999998Q1082.729890942699 87.50999999999999 1082.729890942699 85.82999999999998V77.06H1084.779890942699V85.68Q1084.779890942699 87.35000000000002 1085.539890942699 88.18Q1086.299890942699 89 1087.849890942699 89Q1089.339890942699 89 1090.219890942699 88.44Q1091.109890942699 87.88 1091.499890942699 86.77999999999997Q1091.889890942699 85.69 1091.889890942699 84.09999999999997ZM1106.8698909426992 86.77999999999992Q1106.8698909426992 88.05999999999989 1106.219890942699 88.9299999999999Q1105.5798909426992 89.80999999999989 1104.3898909426991 90.2399999999999Q1103.199890942699 90.6799999999999 1101.5598909426992 90.6799999999999Q1100.1498909426991 90.6799999999999 1099.1298909426991 90.45999999999987Q1098.0998909426992 90.23999999999984 1097.3298909426992 89.83999999999986V87.96999999999986Q1098.1498909426991 88.37999999999988 1099.289890942699 88.70999999999987Q1100.419890942699 89.03999999999985 1101.5998909426992 89.03999999999985Q1103.3398909426992 89.03999999999985 1104.1198909426992 88.46999999999986Q1104.8998909426991 87.90999999999985 1104.8998909426991 86.94999999999987Q1104.8998909426991 86.39999999999986 1104.5898909426992 85.97999999999985T1103.549890942699 85.15999999999985Q1102.809890942699 84.75999999999988 1101.519890942699 84.28999999999985Q1100.239890942699 83.79999999999984 1099.299890942699 83.31999999999982Q1098.369890942699 82.82999999999981 1097.8598909426992 82.13999999999982Q1097.3598909426992 81.43999999999983 1097.3598909426992 80.32999999999981Q1097.3598909426992 78.63999999999982 1098.729890942699 77.72999999999979T1102.3398909426992 76.81999999999977Q1103.549890942699 76.81999999999977 1104.599890942699 77.04999999999978Q1105.6598909426991 77.2899999999998 1106.5698909426992 77.69999999999976L1105.8898909426991 79.31999999999977Q1105.059890942699 78.96999999999974 1104.1198909426992 78.71999999999974Q1103.179890942699 78.47999999999973 1102.199890942699 78.47999999999973Q1100.7998909426992 78.47999999999973 1100.0498909426992 78.93999999999971T1099.2998909426992 80.2099999999997Q1099.2998909426992 80.8299999999997 1099.6498909426991 81.23999999999967Q1099.989890942699 81.63999999999965 1100.7598909426993 81.98999999999967Q1101.5298909426992 82.34999999999968 1102.789890942699 82.81999999999965T1104.959890942699 83.77999999999963Q1105.8798909426991 84.27999999999963 1106.3698909426992 84.97999999999962Q1106.8698909426992 85.67999999999961 1106.8698909426992 86.77999999999963M1114.439890942699 89.01999999999964Q1114.939890942699 89.01999999999964 1115.459890942699 88.93999999999966Q1115.989890942699 88.84999999999968 1116.3198909426992 88.72999999999968V90.30999999999966Q1115.959890942699 90.45999999999964 1115.3298909426992 90.56999999999965T1114.1098909426992 90.67999999999967Q1113.039890942699 90.67999999999967 1112.179890942699 90.30999999999966Q1111.309890942699 89.93999999999966 1110.789890942699 89.04999999999967T1110.269890942699 86.57999999999964V78.64999999999964H1108.3698909426992V77.65999999999963L1110.2898909426992 76.8699999999996L1111.0898909426992 73.95999999999958H1112.3098909426992V77.0599999999996H1116.2298909426993V78.64999999999958H1112.3098909426992V86.51999999999958Q1112.3098909426992 87.77999999999957 1112.8898909426991 88.39999999999958T1114.439890942699 89.01999999999958M1141.3098909426992 81.48999999999961Q1141.3098909426992 83.5599999999996 1140.7898909426992 85.2499999999996Q1140.2598909426993 86.9399999999996 1139.2298909426993 88.14999999999958Q1138.1998909426993 89.3699999999996 1136.6798909426993 90.01999999999958Q1135.1498909426991 90.67999999999961 1133.1398909426991 90.67999999999961Q1131.0598909426992 90.67999999999961 1129.5198909426992 90.01999999999958Q1127.9698909426993 89.3699999999996 1126.9498909426993 88.13999999999959Q1125.9298909426993 86.91999999999956 1125.4298909426993 85.22999999999956Q1124.919890942699 83.52999999999957 1124.919890942699 81.46999999999957Q1124.919890942699 78.72999999999956 1125.8198909426992 76.66999999999956Q1126.7298909426993 74.60999999999956 1128.5598909426992 73.45999999999958Q1130.3998909426991 72.3099999999996 1133.169890942699 72.3099999999996Q1135.8198909426992 72.3099999999996 1137.6298909426991 73.44999999999959Q1139.4498909426993 74.57999999999959 1140.3798909426991 76.63999999999959T1141.3098909426992 81.48999999999961M1127.1098909426992 81.48999999999961Q1127.1098909426992 83.7599999999996 1127.749890942699 85.41999999999962Q1128.3998909426991 87.07999999999964 1129.7398909426993 87.98999999999961Q1131.0698909426992 88.88999999999959 1133.1398909426991 88.88999999999959T1136.539890942699 87.98999999999961Q1137.8598909426992 87.07999999999959 1138.489890942699 85.41999999999962Q1139.1298909426991 83.7599999999996 1139.1298909426991 81.48999999999961Q1139.1298909426991 78.03999999999962 1137.679890942699 76.08999999999963Q1136.239890942699 74.13999999999965 1133.169890942699 74.13999999999965Q1131.0998909426992 74.13999999999965 1129.749890942699 75.02999999999963Q1128.4098909426991 75.92999999999961 1127.759890942699 77.56999999999965T1127.1098909426992 81.48999999999967M1151.3098909426992 76.81999999999965Q1153.689890942699 76.81999999999965 1154.9098909426991 77.97999999999968Q1156.1298909426991 79.1499999999997 1156.1298909426991 81.71999999999969V90.43999999999971H1154.1298909426991V81.85999999999973Q1154.1298909426991 80.18999999999971 1153.3698909426992 79.35999999999973T1151.0298909426992 78.52999999999975Q1148.8098909426992 78.52999999999975 1147.9098909426991 79.77999999999975Q1146.9998909426993 81.03999999999974 1146.9998909426993 83.42999999999972V90.43999999999971H1144.9798909426993V77.05999999999972H1146.6098909426992L1146.919890942699 78.98999999999972H1147.0298909426992Q1147.449890942699 78.27999999999975 1148.1098909426992 77.79999999999973T1149.5898909426992 77.06999999999971T1151.3098909426992 76.81999999999971M1165.4598909426993 76.81999999999971Q1167.1698909426993 76.81999999999971 1168.3898909426991 77.56999999999971Q1169.6098909426992 78.3299999999997 1170.2598909426993 79.68999999999971Q1170.8998909426991 81.04999999999973 1170.8998909426991 82.86999999999972V84.12999999999971H1161.6598909426991Q1161.699890942699 86.47999999999973 1162.8398909426992 87.71999999999969Q1163.969890942699 88.9499999999997 1166.0298909426992 88.9499999999997Q1167.2998909426992 88.9499999999997 1168.2798909426992 88.71999999999969T1170.3098909426992 88.03999999999968V89.81999999999965Q1169.2898909426992 90.26999999999964 1168.2998909426992 90.47999999999968Q1167.2998909426992 90.67999999999967 1165.949890942699 90.67999999999967Q1164.0198909426992 90.67999999999967 1162.5798909426992 89.8999999999997Q1161.1498909426991 89.10999999999967 1160.3598909426992 87.5799999999997Q1159.5598909426992 86.05999999999972 1159.5598909426992 83.84999999999968Q1159.5598909426992 81.68999999999966 1160.2898909426992 80.10999999999967T1162.3398909426992 77.66999999999967Q1163.669890942699 76.81999999999965 1165.459890942699 76.81999999999965M1165.439890942699 78.47999999999968Q1163.8098909426992 78.47999999999968 1162.8498909426992 79.53999999999968Q1161.8798909426991 80.59999999999968 1161.699890942699 82.5099999999997H1168.7798909426992Q1168.7698909426992 81.30999999999972 1168.4098909426991 80.3999999999997T1167.3198909426992 78.97999999999968Q1166.5798909426992 78.47999999999968 1165.439890942699 78.47999999999968M1188.7598909426993 74.16999999999967Q1187.2898909426992 74.16999999999967 1186.1098909426992 74.66999999999967Q1184.9298909426993 75.17999999999967 1184.1098909426992 76.1399999999997Q1183.2798909426992 77.09999999999968 1182.8398909426992 78.4499999999997Q1182.4098909426993 79.80999999999972 1182.4098909426993 81.49999999999972Q1182.4098909426993 83.74999999999972 1183.1098909426994 85.3999999999997Q1183.8098909426994 87.05999999999972 1185.2098909426993 87.9599999999997Q1186.5998909426994 88.86999999999972 1188.6998909426993 88.86999999999972Q1189.8998909426994 88.86999999999972 1190.9598909426993 88.65999999999974Q1192.0098909426993 88.45999999999975 1193.0098909426993 88.15999999999974V89.95999999999975Q1192.0398909426992 90.32999999999976 1190.9598909426993 90.50999999999976Q1189.8898909426994 90.67999999999978 1188.4098909426993 90.67999999999978Q1185.6898909426993 90.67999999999978 1183.8598909426994 89.54999999999978Q1182.0398909426995 88.42999999999978 1181.1298909426994 86.35999999999979Q1180.2198909426995 84.29999999999978 1180.2198909426995 81.48999999999978Q1180.2198909426995 79.4699999999998 1180.7898909426995 77.7899999999998T1182.4498909426995 74.88999999999982T1185.1298909426994 72.99999999999983Q1186.7298909426995 72.3399999999998 1188.7898909426995 72.3399999999998Q1190.1398909426994 72.3399999999998 1191.3998909426994 72.60999999999979Q1192.6598909426993 72.86999999999978 1193.6698909426993 73.36999999999978L1192.8398909426994 75.12999999999977Q1191.9898909426993 74.73999999999978 1190.9698909426993 74.44999999999976Q1189.9498909426993 74.16999999999979 1188.7598909426993 74.16999999999979M1198.6298909426994 71.45999999999981V90.44999999999982H1196.5898909426994V71.45999999999981ZM1202.8998909426994 77.05999999999983H1204.9198909426993V90.43999999999983H1202.8998909426994ZM1203.9398909426993 72.05999999999983Q1204.4398909426993 72.05999999999983 1204.7998909426992 72.37999999999982T1205.1598909426993 73.38999999999982Q1205.1598909426993 74.05999999999983 1204.7998909426992 74.38999999999982T1203.9398909426993 74.7199999999998Q1203.4098909426993 74.7199999999998 1203.0598909426992 74.38999999999982Q1202.7198909426993 74.05999999999983 1202.7198909426993 73.38999999999982Q1202.7198909426993 72.69999999999982 1203.0598909426992 72.37999999999982Q1203.4098909426993 72.05999999999983 1203.9398909426993 72.05999999999983M1214.5598909426992 90.67999999999984Q1212.7498909426993 90.67999999999984 1211.3698909426992 89.93999999999983Q1209.9898909426993 89.18999999999983 1209.2198909426993 87.66999999999985Q1208.4498909426993 86.13999999999987 1208.4498909426993 83.81999999999982Q1208.4498909426993 81.38999999999982 1209.2698909426992 79.8499999999998Q1210.0798909426992 78.30999999999977 1211.5098909426993 77.55999999999977Q1212.9298909426993 76.81999999999977 1214.7498909426993 76.81999999999977Q1215.7498909426993 76.81999999999977 1216.6898909426993 77.01999999999975Q1217.6198909426994 77.21999999999974 1218.2198909426993 77.51999999999975L1217.6098909426994 79.21999999999974Q1216.9998909426993 78.97999999999973 1216.1998909426993 78.77999999999975Q1215.3998909426994 78.58999999999975 1214.6998909426993 78.58999999999975Q1213.3098909426994 78.58999999999975 1212.3898909426994 79.18999999999977Q1211.4698909426995 79.77999999999975 1211.0098909426995 80.93999999999977T1210.5498909426994 83.79999999999978Q1210.5498909426994 85.41999999999979 1210.9998909426995 86.56999999999977T1212.3298909426994 88.31999999999977Q1213.2198909426995 88.92999999999978 1214.5498909426994 88.92999999999978Q1215.6098909426994 88.92999999999978 1216.4598909426995 88.69999999999976Q1217.3198909426994 88.46999999999974 1218.0098909426995 88.16999999999979V89.97999999999979Q1217.3398909426994 90.31999999999977 1216.5198909426995 90.49999999999977Q1215.6898909426993 90.67999999999978 1214.5598909426994 90.67999999999978M1221.1798909426993 71.45999999999981H1223.1998909426993V81.31999999999982Q1223.1998909426993 81.80999999999983 1223.1598909426993 82.50999999999982Q1223.1298909426994 83.20999999999981 1223.0998909426994 83.74999999999983H1223.1898909426995Q1223.4398909426995 83.42999999999984 1223.9398909426995 82.80999999999983Q1224.4298909426996 82.18999999999983 1224.7698909426995 81.80999999999983L1229.2198909426995 77.06999999999982H1231.5998909426996L1226.2098909426995 82.7799999999998L1231.9898909426995 90.44999999999982H1229.5498909426994L1224.8198909426994 84.10999999999984L1223.1998909426995 85.59999999999985V90.44999999999987H1221.1798909426996ZM1254.4598909426993 90.43999999999983H1252.3098909426994L1250.1198909426994 84.7799999999998H1242.9598909426993L1240.7798909426995 90.43999999999983H1238.6798909426993L1245.6598909426993 72.51999999999981H1247.5298909426995ZM1243.6598909426993 82.92999999999984H1249.4898909426995L1247.4098909426993 77.30999999999983Q1247.3298909426994 77.0899999999998 1247.1698909426993 76.57999999999981Q1246.9998909426995 76.07999999999981 1246.8298909426994 75.54999999999984Q1246.6598909426993 75.00999999999982 1246.5498909426994 74.67999999999984Q1246.4298909426993 75.17999999999984 1246.2898909426995 75.67999999999984Q1246.1498909426994 76.16999999999985 1246.0098909426995 76.58999999999986Q1245.8798909426994 77.00999999999988 1245.7798909426995 77.30999999999989ZM1269.8698909426994 90.41999999999985H1267.5098909426995L1265.1298909426994 82.62999999999982Q1264.9698909426995 82.12999999999982 1264.8298909426994 81.63999999999982Q1264.6898909426995 81.1599999999998 1264.5698909426994 80.7199999999998Q1264.4598909426995 80.26999999999981 1264.3698909426994 79.88999999999982Q1264.2798909426995 79.49999999999983 1264.2098909426995 79.2199999999998H1264.1298909426994Q1264.0798909426994 79.49999999999977 1263.9898909426995 79.88999999999982Q1263.9098909426993 80.26999999999981 1263.7898909426995 80.7199999999998Q1263.6798909426993 81.16999999999979 1263.5398909426995 81.66999999999979Q1263.4098909426993 82.1599999999998 1263.2398909426995 82.6599999999998L1260.7498909426995 90.41999999999979H1258.4598909426995L1254.7798909426995 77.0399999999998H1256.8798909426996L1258.8098909426994 84.41999999999979Q1258.9998909426995 85.1499999999998 1259.1798909426996 85.86999999999978Q1259.3598909426994 86.57999999999976 1259.4798909426995 87.20999999999975Q1259.6098909426994 87.83999999999975 1259.6698909426996 88.29999999999973H1259.7698909426995L1259.9398909426995 87.56999999999971Q1260.0298909426995 87.1399999999997 1260.1398909426996 86.65999999999968Q1260.2598909426995 86.17999999999967 1260.3898909426996 85.6999999999997Q1260.5298909426995 85.21999999999969 1260.6598909426996 84.78999999999968L1263.1298909426996 77.03999999999968H1265.3098909426994L1267.6898909426995 84.77999999999969Q1267.8798909426996 85.35999999999967 1268.0498909426994 85.99999999999972Q1268.2298909426995 86.62999999999971 1268.3798909426996 87.21999999999974Q1268.5198909426995 87.81999999999977 1268.5798909426996 88.27999999999975H1268.6798909426996Q1268.7298909426995 87.85999999999973 1268.8698909426996 87.24999999999977Q1268.9998909426997 86.63999999999976 1269.1798909426996 85.9099999999998Q1269.3498909426996 85.17999999999978 1269.5498909426997 84.41999999999979L1271.4998909426997 77.0399999999998H1273.5698909426997ZM1280.9998909426995 76.83999999999986Q1283.3898909426994 76.83999999999986 1284.5498909426994 77.91999999999985Q1285.7098909426993 78.98999999999984 1285.7098909426993 81.34999999999985V90.43999999999983H1284.2298909426993L1283.8398909426994 88.45999999999981H1283.7498909426993Q1283.1798909426993 89.18999999999983 1282.5698909426994 89.68999999999983Q1281.9598909426993 90.17999999999984 1281.1598909426993 90.42999999999984T1279.1998909426993 90.67999999999984Q1277.9798909426993 90.67999999999984 1277.0398909426995 90.25999999999982Q1276.0898909426994 89.82999999999981 1275.5498909426994 88.95999999999981Q1275.0098909426995 88.0999999999998 1275.0098909426995 86.76999999999981Q1275.0098909426995 84.75999999999982 1276.5898909426994 83.68999999999983Q1278.1798909426996 82.61999999999983 1281.4298909426996 82.51999999999981L1283.7298909426995 82.41999999999979V81.5999999999998Q1283.7298909426995 79.86999999999978 1282.9898909426995 79.16999999999979Q1282.2398909426995 78.47999999999979 1280.8898909426994 78.47999999999979Q1279.8398909426994 78.47999999999979 1278.8898909426994 78.7799999999998Q1277.9398909426993 79.0899999999998 1277.0798909426994 79.49999999999983L1276.4598909426995 77.95999999999981Q1277.3598909426994 77.49999999999983 1278.5298909426995 77.16999999999979Q1279.7098909426995 76.8399999999998 1280.9998909426995 76.8399999999998M1283.7098909426995 85.07999999999981V83.8499999999998L1281.6698909426996 83.92999999999978Q1279.1698909426996 84.0299999999998 1278.1398909426996 84.74999999999977Q1277.1198909426996 85.4699999999998 1277.1198909426996 86.7899999999998Q1277.1198909426996 87.93999999999977 1277.8098909426997 88.48999999999978Q1278.5098909426997 89.0399999999998 1279.6598909426998 89.0399999999998Q1281.4398909426998 89.0399999999998 1282.5698909426997 88.04999999999978Q1283.7098909426998 87.05999999999977 1283.7098909426998 85.07999999999976M1293.1298909426996 90.45999999999975L1287.7698909426997 77.05999999999977H1289.9498909426995L1292.8998909426996 84.81999999999977Q1293.1598909426996 85.50999999999976 1293.3798909426996 86.13999999999976T1293.7698909426997 87.33999999999975T1294.0398909426997 88.44999999999976H1294.1198909426996Q1294.2898909426997 87.83999999999975 1294.6098909426996 86.83999999999975Q1294.9298909426998 85.84999999999974 1295.2898909426997 84.80999999999977L1298.0898909426996 77.05999999999977H1300.2698909426995L1294.4498909426995 92.4099999999998Q1293.9898909426995 93.63999999999982 1293.3698909426994 94.54999999999978Q1292.7498909426995 95.4699999999998 1291.8798909426994 95.95999999999981Q1290.9998909426995 96.45999999999981 1289.7498909426995 96.45999999999981Q1289.1798909426993 96.45999999999981 1288.7398909426995 96.38999999999982T1287.9798909426995 96.23999999999984V94.60999999999984Q1288.2498909426995 94.67999999999984 1288.6298909426994 94.71999999999986Q1289.0198909426995 94.76999999999987 1289.4298909426993 94.76999999999987Q1290.1898909426993 94.76999999999987 1290.7498909426995 94.4899999999999Q1291.2998909426994 94.19999999999987 1291.6998909426995 93.64999999999992Q1292.1098909426994 93.09999999999991 1292.3998909426996 92.33999999999992ZM1304.7998909426997 72.59999999999974L1304.2398909426997 85.48999999999972H1302.9098909426996L1302.3498909426996 72.59999999999974ZM1302.1098909426996 89.17999999999972Q1302.1098909426996 88.3299999999997 1302.5198909426995 87.96999999999974Q1302.9398909426995 87.60999999999973 1303.5598909426994 87.60999999999973Q1304.1698909426996 87.60999999999973 1304.5898909426994 87.96999999999974T1305.0098909426995 89.17999999999972Q1305.0098909426995 90.0199999999997 1304.5898909426994 90.40999999999974Q1304.1698909426996 90.78999999999974 1303.5598909426994 90.78999999999974Q1302.9398909426995 90.78999999999974 1302.5198909426995 90.40999999999974Q1302.1098909426996 90.01999999999975 1302.1098909426996 89.17999999999972 "></path></g><rect width="561" height="122" x="719.5" y="0" id="space-saver" fill="transparent" stroke="transparent"></rect></g></svg>